<svg width="121" height="52" viewBox="0 0 121 52" fill="none" xmlns="http://www.w3.org/2000/svg">
<path d="M6.688 35.448H14.048V39H2.208V16.664H6.688V35.448ZM33.3755 29.752C33.3755 30.392 33.3328 30.968 33.2475 31.48H20.2875C20.3942 32.76 20.8422 33.7627 21.6315 34.488C22.4208 35.2133 23.3915 35.576 24.5435 35.576C26.2075 35.576 27.3915 34.8613 28.0955 33.432H32.9275C32.4155 35.1387 31.4342 36.5467 29.9835 37.656C28.5328 38.744 26.7515 39.288 24.6395 39.288C22.9328 39.288 21.3968 38.9147 20.0315 38.168C18.6875 37.4 17.6315 36.3227 16.8635 34.936C16.1168 33.5493 15.7435 31.9493 15.7435 30.136C15.7435 28.3013 16.1168 26.6907 16.8635 25.304C17.6102 23.9173 18.6555 22.8507 19.9995 22.104C21.3435 21.3573 22.8902 20.984 24.6395 20.984C26.3248 20.984 27.8288 21.3467 29.1515 22.072C30.4955 22.7973 31.5302 23.832 32.2555 25.176C33.0022 26.4987 33.3755 28.024 33.3755 29.752ZM28.7355 28.472C28.7142 27.32 28.2982 26.4027 27.4875 25.72C26.6768 25.016 25.6848 24.664 24.5115 24.664C23.4022 24.664 22.4635 25.0053 21.6955 25.688C20.9488 26.3493 20.4902 27.2773 20.3195 28.472H28.7355ZM35.4935 30.072C35.4935 28.28 35.8455 26.6907 36.5495 25.304C37.2748 23.9173 38.2455 22.8507 39.4615 22.104C40.6988 21.3573 42.0748 20.984 43.5895 20.984C44.9122 20.984 46.0642 21.2507 47.0455 21.784C48.0482 22.3173 48.8482 22.9893 49.4455 23.8V21.272H53.9575V39H49.4455V36.408C48.8695 37.24 48.0695 37.9333 47.0455 38.488C46.0428 39.0213 44.8802 39.288 43.5575 39.288C42.0642 39.288 40.6988 38.904 39.4615 38.136C38.2455 37.368 37.2748 36.2907 36.5495 34.904C35.8455 33.496 35.4935 31.8853 35.4935 30.072ZM49.4455 30.136C49.4455 29.048 49.2322 28.12 48.8055 27.352C48.3788 26.5627 47.8028 25.9653 47.0775 25.56C46.3522 25.1333 45.5735 24.92 44.7415 24.92C43.9095 24.92 43.1415 25.1227 42.4375 25.528C41.7335 25.9333 41.1575 26.5307 40.7095 27.32C40.2828 28.088 40.0695 29.0053 40.0695 30.072C40.0695 31.1387 40.2828 32.0773 40.7095 32.888C41.1575 33.6773 41.7335 34.2853 42.4375 34.712C43.1628 35.1387 43.9308 35.352 44.7415 35.352C45.5735 35.352 46.3522 35.1493 47.0775 34.744C47.8028 34.3173 48.3788 33.72 48.8055 32.952C49.2322 32.1627 49.4455 31.224 49.4455 30.136ZM57.181 30.072C57.181 28.28 57.533 26.6907 58.237 25.304C58.9623 23.9173 59.9437 22.8507 61.181 22.104C62.4183 21.3573 63.7943 20.984 65.309 20.984C66.461 20.984 67.5597 21.24 68.605 21.752C69.6503 22.2427 70.4823 22.904 71.101 23.736V15.32H75.645V39H71.101V36.376C70.5463 37.2507 69.7677 37.9547 68.765 38.488C67.7623 39.0213 66.5997 39.288 65.277 39.288C63.7837 39.288 62.4183 38.904 61.181 38.136C59.9437 37.368 58.9623 36.2907 58.237 34.904C57.533 33.496 57.181 31.8853 57.181 30.072ZM71.133 30.136C71.133 29.048 70.9197 28.12 70.493 27.352C70.0663 26.5627 69.4903 25.9653 68.765 25.56C68.0397 25.1333 67.261 24.92 66.429 24.92C65.597 24.92 64.829 25.1227 64.125 25.528C63.421 25.9333 62.845 26.5307 62.397 27.32C61.9703 28.088 61.757 29.0053 61.757 30.072C61.757 31.1387 61.9703 32.0773 62.397 32.888C62.845 33.6773 63.421 34.2853 64.125 34.712C64.8503 35.1387 65.6183 35.352 66.429 35.352C67.261 35.352 68.0397 35.1493 68.765 34.744C69.4903 34.3173 70.0663 33.72 70.493 32.952C70.9197 32.1627 71.133 31.224 71.133 30.136ZM86.8045 39.288C85.3538 39.288 84.0525 39.032 82.9005 38.52C81.7485 37.9867 80.8312 37.272 80.1485 36.376C79.4872 35.48 79.1245 34.488 79.0605 33.4H83.5725C83.6578 34.0827 83.9885 34.648 84.5645 35.096C85.1618 35.544 85.8978 35.768 86.7725 35.768C87.6258 35.768 88.2872 35.5973 88.7565 35.256C89.2472 34.9147 89.4925 34.4773 89.4925 33.944C89.4925 33.368 89.1938 32.9413 88.5965 32.664C88.0205 32.3653 87.0925 32.0453 85.8125 31.704C84.4898 31.384 83.4018 31.0533 82.5485 30.712C81.7165 30.3707 80.9912 29.848 80.3725 29.144C79.7752 28.44 79.4765 27.4907 79.4765 26.296C79.4765 25.3147 79.7538 24.4187 80.3085 23.608C80.8845 22.7973 81.6952 22.1573 82.7405 21.688C83.8072 21.2187 85.0552 20.984 86.4845 20.984C88.5965 20.984 90.2818 21.5173 91.5405 22.584C92.7992 23.6293 93.4925 25.048 93.6205 26.84H89.3325C89.2685 26.136 88.9698 25.5813 88.4365 25.176C87.9245 24.7493 87.2312 24.536 86.3565 24.536C85.5458 24.536 84.9165 24.6853 84.4685 24.984C84.0418 25.2827 83.8285 25.6987 83.8285 26.232C83.8285 26.8293 84.1272 27.288 84.7245 27.608C85.3218 27.9067 86.2498 28.216 87.5085 28.536C88.7885 28.856 89.8445 29.1867 90.6765 29.528C91.5085 29.8693 92.2232 30.4027 92.8205 31.128C93.4392 31.832 93.7592 32.7707 93.7805 33.944C93.7805 34.968 93.4925 35.8853 92.9165 36.696C92.3618 37.5067 91.5512 38.1467 90.4845 38.616C89.4392 39.064 88.2125 39.288 86.8045 39.288Z" fill="#1D1D1D"/>
<path d="M98.34 7.84V15.82C98.34 16.4733 98.48 16.9933 98.76 17.38C99.0533 17.7533 99.52 17.94 100.16 17.94C100.8 17.94 101.273 17.7533 101.58 17.38C101.887 16.9933 102.04 16.4733 102.04 15.82V7.84H106.46V15.82C106.46 17.1667 106.18 18.32 105.62 19.28C105.06 20.2267 104.293 20.94 103.32 21.42C102.347 21.9 101.26 22.14 100.06 22.14C98.86 22.14 97.7933 21.9 96.86 21.42C95.94 20.94 95.22 20.2267 94.7 19.28C94.18 18.3333 93.92 17.18 93.92 15.82V7.84H98.34ZM119.955 12.7C119.955 13.5933 119.748 14.4067 119.335 15.14C118.922 15.86 118.308 16.4333 117.495 16.86C116.695 17.2867 115.722 17.5 114.575 17.5H112.815V22H108.375V7.84H114.575C116.308 7.84 117.635 8.28 118.555 9.16C119.488 10.04 119.955 11.22 119.955 12.7ZM114.075 14C114.995 14 115.455 13.5667 115.455 12.7C115.455 11.8333 114.995 11.4 114.075 11.4H112.815V14H114.075Z" fill="#8976FD"/>
</svg>
